<svg data-v-423bf9ae="" xmlns="http://www.w3.org/2000/svg" viewBox="0 0 598.6034177961109 60" class="font"><!----><!----><!----><g data-v-423bf9ae="" id="4e21efe0-970c-4584-856a-209bd2641612" fill="black" transform="matrix(4.525633335113525,0,0,4.525633335113525,-5.515618801116943,-17.607542037963867)"><path d="M6.34 14.35L7.18 14.35L7.18 4.58L6.34 4.58L6.34 9.03L2.06 9.03L2.06 4.58L1.22 4.58L1.22 14.35L2.06 14.35L2.06 9.76L6.34 9.76ZM12.64 13.19L12.59 13.19L10.14 7.13L9.31 7.13L12.21 14.15L11.26 16.46L9.62 16.46L9.62 17.15L10.82 17.15C11.58 17.15 11.89 16.88 12.12 16.31L15.89 7.13L15.09 7.13ZM18.30 17.15L19.10 17.15L19.10 13.20L19.14 13.20C19.54 13.99 20.29 14.52 21.38 14.52C23.17 14.52 24.25 13.16 24.25 10.74C24.25 8.32 23.17 6.96 21.38 6.96C20.29 6.96 19.54 7.49 19.14 8.27L19.10 8.27L19.10 7.13L18.30 7.13ZM21.11 13.80C20.03 13.80 19.10 13.19 19.10 12.17L19.10 9.31C19.10 8.29 20.03 7.67 21.11 7.67C22.57 7.67 23.39 8.67 23.39 10.23L23.39 11.24C23.39 12.81 22.57 13.80 21.11 13.80ZM29.51 14.52C30.93 14.52 31.92 13.80 32.35 12.75L31.75 12.38C31.35 13.31 30.56 13.82 29.51 13.82C28.01 13.82 27.12 12.78 27.12 11.24L27.12 10.89L32.54 10.89L32.54 10.54C32.54 8.41 31.37 6.96 29.44 6.96C27.52 6.96 26.28 8.36 26.28 10.75C26.28 13.12 27.51 14.52 29.51 14.52ZM29.44 7.63C30.83 7.63 31.68 8.62 31.68 10.18L31.68 10.29L27.12 10.29L27.12 10.21C27.12 8.67 28.04 7.63 29.44 7.63ZM34.69 14.35L40.70 14.35L40.70 13.66L37.76 13.66L37.76 10.05C37.76 8.75 38.63 7.91 39.93 7.91L41.41 7.91L41.41 7.13L40.17 7.13C38.74 7.13 38.11 7.90 37.81 8.78L37.76 8.78L37.76 7.13L34.69 7.13L34.69 7.81L36.96 7.81L36.96 13.66L34.69 13.66ZM56.98 14.35L57.75 14.35L57.75 4.58L56.69 4.58L54.66 9.41L54.59 9.41L52.54 4.58L51.45 4.58L51.45 14.35L52.22 14.35L52.22 5.84L52.30 5.84L54.60 11.20L56.90 5.84L56.98 5.84ZM63 14.52C64.96 14.52 66.15 13.12 66.15 10.74C66.15 8.36 64.96 6.96 63 6.96C61.04 6.96 59.85 8.36 59.85 10.74C59.85 13.12 61.04 14.52 63 14.52ZM63 13.82C61.59 13.82 60.70 12.89 60.70 11.19L60.70 10.29C60.70 8.58 61.59 7.66 63 7.66C64.41 7.66 65.30 8.58 65.30 10.29L65.30 11.19C65.30 12.89 64.41 13.82 63 13.82ZM73.30 14.35L74.10 14.35L74.10 3.99L73.30 3.99L73.30 8.27L73.26 8.27C72.86 7.49 72.11 6.96 71.02 6.96C69.23 6.96 68.15 8.32 68.15 10.74C68.15 13.16 69.23 14.52 71.02 14.52C72.11 14.52 72.86 13.99 73.26 13.20L73.30 13.20ZM71.29 13.80C69.83 13.80 69.01 12.81 69.01 11.24L69.01 10.23C69.01 8.67 69.83 7.67 71.29 7.67C72.37 7.67 73.30 8.29 73.30 9.31L73.30 12.17C73.30 13.19 72.37 13.80 71.29 13.80ZM81.68 14.35L82.47 14.35L82.47 7.13L81.68 7.13L81.68 12.21C81.68 13.30 80.71 13.80 79.72 13.80C78.50 13.80 77.83 13.13 77.83 11.65L77.83 7.13L77.03 7.13L77.03 11.79C77.03 13.54 77.95 14.52 79.51 14.52C80.72 14.52 81.34 13.90 81.62 13.23L81.68 13.23ZM85.18 14.35L91.22 14.35L91.22 13.66L88.61 13.66L88.61 3.99L85.18 3.99L85.18 4.68L87.81 4.68L87.81 13.66L85.18 13.66ZM100.00 14.35L100.00 13.65L98.92 13.65L98.92 9.37C98.92 7.85 97.92 6.96 96.29 6.96C94.89 6.96 94.01 7.62 93.63 8.44L94.18 8.83C94.57 8.05 95.26 7.64 96.25 7.64C97.43 7.64 98.13 8.25 98.13 9.45L98.13 10.33L96.36 10.33C94.21 10.33 93.39 11.13 93.39 12.40C93.39 13.73 94.32 14.52 95.83 14.52C97.08 14.52 97.78 13.97 98.10 13.22L98.17 13.22L98.17 13.47C98.21 14 98.46 14.35 99.11 14.35ZM95.96 13.85C94.92 13.85 94.23 13.40 94.23 12.57L94.23 12.21C94.23 11.42 94.86 10.93 96.36 10.93L98.13 10.93L98.13 12.26C98.13 13.23 97.17 13.85 95.96 13.85ZM101.89 14.35L107.90 14.35L107.90 13.66L104.96 13.66L104.96 10.05C104.96 8.75 105.83 7.91 107.13 7.91L108.61 7.91L108.61 7.13L107.37 7.13C105.94 7.13 105.31 7.90 105.01 8.78L104.96 8.78L104.96 7.13L101.89 7.13L101.89 7.81L104.16 7.81L104.16 13.66L101.89 13.66ZM113.85 5.19C114.35 5.19 114.55 4.96 114.55 4.63L114.55 4.45C114.55 4.13 114.35 3.89 113.85 3.89C113.34 3.89 113.15 4.13 113.15 4.45L113.15 4.63C113.15 4.96 113.34 5.19 113.85 5.19ZM110.74 14.35L116.79 14.35L116.79 13.66L114.25 13.66L114.25 7.13L110.74 7.13L110.74 7.81L113.46 7.81L113.46 13.66L110.74 13.66ZM124.94 14.35L124.94 13.66L121.49 13.66L121.49 7.81L124.94 7.81L124.94 7.13L121.49 7.13L121.49 4.58L120.72 4.58L120.72 6.57C120.72 6.97 120.57 7.13 120.16 7.13L118.13 7.13L118.13 7.81L120.69 7.81L120.69 13.19C120.69 13.89 121.06 14.35 121.83 14.35ZM130.24 13.19L130.19 13.19L127.74 7.13L126.91 7.13L129.81 14.15L128.86 16.46L127.22 16.46L127.22 17.15L128.42 17.15C129.18 17.15 129.49 16.88 129.72 16.31L133.49 7.13L132.69 7.13Z"></path></g><!----><!----></svg>